<?xml version="1.0" standalone="no"?>
<!DOCTYPE svg PUBLIC "-//W3C//DTD SVG 20010904//EN"
 "http://www.w3.org/TR/2001/REC-SVG-20010904/DTD/svg10.dtd">
<svg version="1.0" xmlns="http://www.w3.org/2000/svg"
 width="512.000000pt" height="512.000000pt" viewBox="0 0 512.000000 512.000000"
 preserveAspectRatio="xMidYMid meet">
<metadata>
Created by potrace 1.11, written by Peter Selinger 2001-2013
</metadata>
<g transform="translate(0.000000,512.000000) scale(0.100000,-0.100000)"
fill="#000000" stroke="none">
<path d="M1937 3954 c-1 -1 -27 -4 -57 -7 -110 -11 -166 -46 -204 -127 -21
-45 -21 -46 -23 -1235 -3 -1258 -3 -1250 42 -1319 39 -60 149 -98 283 -99 230
-2 324 61 341 227 3 34 6 256 5 493 l0 433 42 -45 c23 -25 115 -130 205 -233
90 -103 166 -189 169 -192 3 -3 34 -39 70 -80 75 -86 115 -131 150 -170 14
-15 44 -50 67 -76 22 -27 54 -63 70 -81 15 -17 51 -57 78 -89 106 -121 176
-176 245 -189 58 -11 196 71 306 182 122 123 122 212 4 363 -92 115 -356 389
-715 739 l-117 115 84 79 c154 146 524 515 614 613 49 54 96 105 104 114 100
107 139 220 102 303 -24 55 -125 159 -207 213 -185 124 -237 101 -525 -236
-69 -80 -127 -147 -130 -150 -3 -3 -34 -39 -70 -80 -35 -41 -71 -82 -80 -91
-8 -9 -36 -40 -61 -70 -26 -30 -57 -66 -70 -80 -13 -14 -40 -44 -59 -66 -103
-117 -168 -190 -190 -213 -14 -14 -37 -41 -52 -59 -16 -18 -29 -29 -30 -24 0
4 -2 206 -3 448 -3 530 -4 550 -58 607 -48 52 -127 77 -255 82 -40 1 -73 1
-75 0z"/>
<path d="M4662 3938 c-68 -36 -101 -68 -234 -221 -72 -84 -155 -179 -184 -212
-29 -33 -62 -71 -74 -85 -36 -42 -134 -153 -150 -170 -8 -9 -42 -47 -75 -85
-33 -39 -71 -82 -85 -96 -14 -15 -50 -55 -80 -90 -30 -34 -72 -81 -93 -103
-114 -123 -187 -246 -187 -315 0 -62 73 -190 160 -282 44 -46 110 -120 239
-269 79 -91 162 -186 185 -211 23 -25 68 -77 101 -114 33 -38 82 -94 109 -125
93 -105 121 -137 171 -195 109 -127 186 -187 255 -200 52 -10 181 62 281 157
117 111 141 186 93 286 -15 31 -50 84 -77 117 -103 125 -366 397 -692 714
l-128 125 84 79 c156 146 498 488 596 594 54 59 107 116 118 128 66 70 114
157 122 220 7 58 -20 115 -88 186 -145 152 -279 213 -367 167z"/>
<path d="M565 3245 c-73 -13 -93 -20 -173 -56 -137 -63 -263 -193 -331 -343
-69 -150 -78 -353 -24 -509 40 -114 83 -184 165 -266 78 -79 163 -133 267
-168 92 -31 113 -34 210 -36 138 -2 218 16 336 75 129 64 231 166 302 303 118
227 94 513 -61 728 -64 90 -138 152 -251 214 -107 58 -301 83 -440 58z"/>
</g>
</svg>
