<?xml version="1.0" encoding="utf-8"?>
<!-- Generator: Adobe Illustrator 22.0.1, SVG Export Plug-In . SVG Version: 6.00 Build 0)  -->
<svg version="1.1" id="Layer_1" xmlns="http://www.w3.org/2000/svg" xmlns:xlink="http://www.w3.org/1999/xlink" x="0px" y="0px"
	 viewBox="0 0 834.5 147.7" style="enable-background:new 0 0 834.5 147.7;" xml:space="preserve">
<style type="text/css">
	.st0{fill:#FFFFFF;}
</style>
<title>okka_brand_bnlogo</title>
<g>
	<path class="st0" d="M141.5,73.3c0,40.9-29.9,74.5-70.3,74.5c-66.6,0-93.8-83.5-49.8-126.6C67-23.5,141.5,9.7,141.5,73.3z
		 M34.6,74.2c0,51.2,72.4,52,72.4,0.2c0-24.5-18.5-39.2-36.3-39.2C53.2,35.1,34.6,49.8,34.6,74.2z"/>
	<path class="st0" d="M213.2,73.6c22.9,22,48.8,46.7,48.8,55.3c0,6.9-14,18.4-20.6,18.4s-10.9-7-54.9-57.2
		c0,46.8,4.4,55.2-17.4,55.2c-14.9,0-17.2-5.5-17.2-17.4c0-115.2-0.1-112,0.3-115.2c1.2-8.8,8.2-10.4,17.1-10.4
		c21.1,0,17.2,6.9,17.2,54.6c51.4-57.9,50.2-65.3,67.7-50.3C269.3,19.8,265.7,23.7,213.2,73.6z"/>
	<path class="st0" d="M332.7,73.6c22.9,22,48.8,46.7,48.8,55.3c0,6.9-14,18.4-20.6,18.4s-10.9-7-54.9-57.2
		c0,46.8,4.4,55.2-17.4,55.2c-14.9,0-17.2-5.5-17.2-17.4c0-115.2-0.1-112,0.3-115.2c1.1-8.8,8.2-10.4,17.1-10.4
		c21.1,0,17.2,6.9,17.2,54.6c51.4-57.9,50.2-65.3,67.7-50.3C388.7,19.8,385.1,23.7,332.7,73.6z"/>
	<path class="st0" d="M473.7,12.5c54.8,113.2,56,114.2,56,118.8c0,9-16.3,16-21.8,16c-9.3,0-10.2-6-22.9-32.4h-54
		c-13.6,28.3-14.8,38.2-33.4,28.9c-13.3-6.4-13.1-12.3-8-22.5C446.7,3.2,442.7,8.9,448.8,5.1C456.8,0.2,468.1,1.3,473.7,12.5z
		 M457.9,59.3L445,86.1h26L457.9,59.3z"/>
	<path class="st0" d="M635.3,143.8c-5.3,2.3-11.7,4.4-16.3,0.9c-3.8-2.9-2.9-1-18.8-39.1c-8.1,0.5-1.3,0.4-30.6,0.4
		c0,29,4,39.2-17.4,39.2c-14.9,0-17.2-5.2-17.2-17.4c0-116.4-0.1-111.8,0.3-115c1.2-8.8,8.2-10.4,17.1-10.4
		c43.3,0,55.1-3.2,75.5,12.5c21,16.3,25.5,54.1,3.3,75.7C647,128.7,655.7,135.3,635.3,143.8z M569.5,71.4c26.7,0,29,1.2,36.3-4.3
		c7.6-5.8,7.6-20,0-25.9c-7.4-5.8-10.7-4.4-36.3-4.4V71.4z"/>
	<path class="st0" d="M658.6,19.5c0-5.6,0-7.9,2.2-11.9c3.6-6.9,27.9-8.1,31.4,1.9c1.4,4.8,1,3.9,1,118.6c0,7.2-0.3,8.5-2.2,11.9
		c-3.6,6.9-28,8.1-31.2-2.1C658.1,133.5,658.6,134,658.6,19.5z"/>
	<path class="st0" d="M802,8.3c4.3-8,23.7-6.7,28.9-2.4c3.3,2.8,3.6,9.7,3.6,14.1c0,116.6,0.1,112.1-0.3,115.1
		c-1.2,8.8-8.3,10.4-17.1,10.4c-17.8,0-7.3,4-73.2-81.4c0,75,0.7,70.7-2.1,76.1c-3.7,7.1-26.3,7.2-30,0c-2.1-3.9-2.2-6.1-2.2-12.1
		c0-116.3-0.7-115,1.8-119.7c4.5-8.3,24.8-6.6,29.2-2.2c3.7,2.8,32.4,44,59.5,79C800.1,16.4,799.4,13.1,802,8.3z"/>
</g>
</svg>
