<?xml version="1.0" encoding="utf-8"?>
<!-- Generator: Adobe Illustrator 22.0.1, SVG Export Plug-In . SVG Version: 6.00 Build 0)  -->
<svg version="1.1" id="Layer_1" xmlns="http://www.w3.org/2000/svg" xmlns:xlink="http://www.w3.org/1999/xlink" x="0px" y="0px"
	 viewBox="0 0 841.8 458.5" style="enable-background:new 0 0 841.8 458.5;" xml:space="preserve">
<style type="text/css">
	.st0{fill:#FFFFFF;}
</style>
<title>okka_brand_bniso</title>
<g>
	<path class="st0" d="M114.3,114.6c63.2-0.1,114.5,51,114.6,114.2c0,0.3,0,0.5,0,0.8c0,63.7-50.9,114.3-114.6,114.3S0,293.3,0,229.6
		S50.6,114.6,114.3,114.6z"/>
	<path class="st0" d="M606.9,177.3c55.1-61.9,99.6-112.7,133.6-152.4C754.6,8.3,767,0,777.5,0s23.9,7,40.1,21
		c16.2,14,24.3,26.1,24.3,36.4s-6.1,22.5-18.2,36.7c-23.5,27.1-59.9,64.4-109.3,111.7L690,229c62,59.5,105.9,104.2,131.8,134.2
		c13.3,15,20,27.7,20,38c0,10.3-8.1,22.5-24.3,36.4c-16.2,14-29.5,21-39.8,21S755,450,740.5,433L606.9,280.6
		c0,0-31.5-30.9-31.5-51.3S606.9,177.3,606.9,177.3z"/>
	<path class="st0" d="M608.1,363.2c13.4,15,20,27.6,20,38s-8.1,22.5-24.3,36.4c-16.2,14-29.5,21-39.8,21s-22.8-8.5-37.4-25.5
		L393.1,280.6c0,0-5-5-11.1-12.2v135c0.1,7.3-0.2,14.6-1,21.9c-0.6,4.6-2.6,10-5.9,16.3c-5.8,11.3-22.1,16.9-48.8,16.9
		c-29.2,0-46.3-7.9-51.3-23.8c-2.5-6.7-3.7-17.3-3.7-31.9V55c-0.1-7.2,0.2-14.4,0.9-21.6c0.6-4.8,2.6-10.3,5.9-16.6
		C284.1,5.6,300.3,0,327,0c29.2,0,46.5,7.7,51.9,23.2c2.1,7.1,3.1,17.9,3.1,32.5v134c6-7.3,11.1-12.3,11.1-12.3
		c55.1-62,99.6-112.8,133.6-152.4C540.9,8.3,553.3,0,563.8,0c10.5,0,23.9,7,40.1,21c16.2,13.9,24.3,26.1,24.3,36.4
		s-6,22.6-18.2,36.7c-23.5,27.1-59.9,64.4-109.3,111.8L476.4,229C538.3,288.4,582.2,333.2,608.1,363.2z"/>
</g>
</svg>
